<?xml version="1.0" standalone="no"?>
<!DOCTYPE svg PUBLIC "-//W3C//DTD SVG 20010904//EN"
 "http://www.w3.org/TR/2001/REC-SVG-20010904/DTD/svg10.dtd">
<svg version="1.0" xmlns="http://www.w3.org/2000/svg"
 width="263.000000pt" height="244.000000pt" viewBox="0 0 263.000000 244.000000"
 preserveAspectRatio="xMidYMid meet">

<g transform="translate(0.000000,244.000000) scale(0.100000,-0.100000)"
fill="#000000" stroke="none">
<path d="M1022 2288 c-18 -6 -52 -28 -75 -48 -37 -33 -50 -38 -108 -42 -135
-11 -222 -106 -222 -243 0 -69 17 -117 61 -166 l30 -34 4 -155 c3 -149 4 -157
34 -220 17 -36 50 -86 73 -112 42 -47 53 -86 29 -105 -7 -6 -62 -29 -123 -53
-221 -85 -342 -165 -384 -255 -20 -42 -21 -61 -21 -290 l0 -245 51 -25 c64
-33 159 -57 314 -81 97 -15 178 -19 425 -18 192 0 334 4 384 12 l80 12 21 -26
c17 -22 29 -26 79 -28 70 -3 97 14 115 73 7 25 18 41 27 41 10 0 14 -6 10 -17
-3 -10 -8 -31 -12 -46 l-6 -28 237 3 c221 3 238 4 251 22 12 16 14 93 14 438
0 233 -4 418 -9 418 -5 0 -14 -7 -21 -15 -10 -12 -15 -12 -35 1 -19 12 -28 13
-46 4 -17 -9 -27 -9 -45 1 -20 10 -27 10 -42 -4 -17 -15 -19 -15 -35 0 -14 15
-20 15 -42 3 -21 -11 -30 -12 -46 -1 -17 10 -25 10 -44 -3 -20 -13 -25 -13
-35 -1 -16 19 -34 19 -50 0 -10 -12 -15 -12 -35 1 -19 13 -27 13 -44 3 -16
-11 -25 -10 -45 1 -22 11 -28 11 -44 -3 -17 -15 -19 -15 -36 1 -12 11 -20 13
-23 6 -2 -8 -50 7 -136 41 l-132 53 -3 36 c-3 30 3 42 28 68 86 86 110 162
110 351 l0 139 30 30 c51 51 64 85 65 168 0 84 -16 126 -68 180 -44 45 -102
70 -165 70 -46 0 -58 4 -84 30 -16 17 -44 38 -61 47 -39 20 -150 26 -195 11z
m120 -98 c44 -13 98 -71 98 -106 0 -14 3 -24 8 -22 57 30 90 39 120 34 67 -10
110 -56 119 -125 7 -48 -24 -108 -67 -133 -27 -15 -30 -22 -30 -68 l0 -50
-285 0 -285 0 0 49 c0 45 -3 51 -33 69 -85 50 -86 183 -2 238 41 27 99 29 139
6 l35 -21 11 33 c13 40 57 84 96 96 39 11 34 11 76 0z m248 -647 c0 -81 -24
-140 -78 -196 -182 -189 -492 -65 -492 196 l0 67 285 0 285 0 0 -67z m-285
-388 c50 0 102 4 116 8 24 8 27 5 34 -20 3 -15 13 -35 21 -45 14 -15 11 -17
-36 -27 -28 -6 -89 -11 -135 -11 -46 0 -107 5 -135 11 -47 10 -50 12 -36 27 8
10 18 30 21 45 7 25 10 28 34 20 14 -4 67 -8 116 -8z m-295 -489 l0 -354 -42
4 c-103 11 -242 37 -291 53 l-52 18 -3 177 c-1 109 2 193 9 219 12 46 56 93
126 134 50 29 221 102 241 103 9 0 12 -77 12 -354z m673 330 c35 -13 82 -33
105 -45 l42 -21 0 -183 c0 -177 1 -184 23 -205 19 -18 24 -19 41 -6 11 8 32
14 48 14 30 0 33 -7 29 -67 -2 -18 2 -33 8 -33 6 0 11 -12 11 -26 0 -22 -2
-25 -15 -14 -9 8 -29 10 -50 7 -37 -6 -49 7 -16 16 12 3 23 18 29 38 7 30 6
34 -12 37 -12 2 -27 -5 -37 -17 -17 -20 -17 -20 -35 0 -16 17 -19 18 -26 4 -6
-10 -3 -24 11 -42 29 -36 26 -43 -12 -36 -38 6 -56 -10 -66 -60 -6 -30 -10
-32 -61 -39 -30 -4 -175 -11 -322 -14 l-268 -7 0 338 0 337 33 -6 c172 -31
343 -12 474 53 2 0 31 -10 66 -23z"/>
<path d="M1042 798 c-15 -15 -15 -61 0 -76 7 -7 24 -12 38 -12 14 0 31 5 38
12 7 7 12 24 12 38 0 14 -5 31 -12 38 -15 15 -61 15 -76 0z"/>
<path d="M1234 785 c-25 -38 -6 -75 39 -75 40 0 57 15 57 52 0 50 -68 66 -96
23z"/>
<path d="M1052 604 c-24 -17 -30 -62 -10 -82 7 -7 24 -12 38 -12 33 0 50 17
50 50 0 48 -40 71 -78 44z"/>
<path d="M1253 610 c-48 -19 -31 -100 22 -100 52 0 75 65 33 94 -25 18 -25 18
-55 6z"/>
<path d="M2239 1449 c-20 -20 -57 -95 -74 -149 -7 -23 -5 -22 39 13 64 53 58
35 -13 -38 -46 -47 -63 -74 -79 -122 -20 -61 -18 -75 6 -51 9 9 17 8 37 -2 21
-11 29 -11 50 0 20 10 28 11 37 2 7 -7 15 -12 19 -12 11 0 78 213 85 273 5 44
3 62 -10 82 -21 32 -67 34 -97 4z"/>
<path d="M1725 1336 c-76 -18 -90 -25 -93 -42 -3 -24 24 -194 33 -202 3 -3 16
0 30 6 20 9 30 9 45 0 16 -10 24 -10 40 0 15 9 25 9 44 0 20 -8 29 -8 41 2 19
16 19 38 -2 160 -18 114 -7 108 -138 76z"/>
<path d="M1885 1298 c2 -13 11 -63 20 -112 8 -49 16 -91 19 -93 2 -3 14 0 25
7 15 8 27 8 41 0 16 -8 28 -8 50 2 24 10 34 25 51 78 12 36 24 71 27 78 2 7
-4 12 -16 12 -11 0 -27 11 -36 25 -19 29 -37 31 -76 9 -26 -16 -29 -16 -51 0
-35 24 -61 21 -54 -6z"/>
</g>
</svg>
